<?xml version="1.0" encoding="UTF-8"?><svg xmlns="http://www.w3.org/2000/svg" xmlns:xlink="http://www.w3.org/1999/xlink" width="375" zoomAndPan="magnify" viewBox="0 0 375 374.999991" height="374.999991" preserveAspectRatio="xMidYMid meet" version="1.0"><defs><clipPath id="clip-0"><path d="M 277 200 L 368 200 L 368 255 L 277 255 Z M 277 200 " clip-rule="nonzero"/></clipPath><clipPath id="clip-1"><path d="M 321.035156 170.976562 L 374.789062 232.566406 L 322.238281 278.429688 L 268.484375 216.835938 Z M 321.035156 170.976562 " clip-rule="nonzero"/></clipPath><clipPath id="clip-2"><path d="M 321.035156 170.976562 L 374.789062 232.566406 L 322.238281 278.429688 L 268.484375 216.835938 Z M 321.035156 170.976562 " clip-rule="nonzero"/></clipPath><clipPath id="clip-3"><path d="M 358 228 L 371 228 L 371 241 L 358 241 Z M 358 228 " clip-rule="nonzero"/></clipPath><clipPath id="clip-4"><path d="M 321.035156 170.976562 L 374.789062 232.566406 L 322.238281 278.429688 L 268.484375 216.835938 Z M 321.035156 170.976562 " clip-rule="nonzero"/></clipPath><clipPath id="clip-5"><path d="M 321.035156 170.976562 L 374.789062 232.566406 L 322.238281 278.429688 L 268.484375 216.835938 Z M 321.035156 170.976562 " clip-rule="nonzero"/></clipPath></defs><g clip-path="url(#clip-0)"><g clip-path="url(#clip-1)"><g clip-path="url(#clip-2)"><path fill="rgb(30.589294%, 62.348938%, 23.919678%)" d="M 287.285156 200.863281 C 286.945312 201.285156 286.601562 201.710938 286.265625 202.140625 C 285.929688 202.566406 285.589844 202.996094 285.261719 203.429688 C 284.597656 204.292969 283.957031 205.171875 283.351562 206.074219 C 282.128906 207.871094 281.03125 209.757812 280.214844 211.78125 C 279.800781 212.789062 279.460938 213.828125 279.191406 214.890625 C 278.925781 215.957031 278.742188 217.050781 278.648438 218.15625 C 278.460938 220.375 278.664062 222.664062 279.332031 224.84375 C 279.671875 225.933594 280.101562 226.996094 280.660156 228.003906 C 281.214844 229.015625 281.886719 229.96875 282.632812 230.859375 C 283.390625 231.746094 284.226562 232.570312 285.121094 233.320312 C 286.023438 234.066406 286.980469 234.746094 287.976562 235.355469 C 288.972656 235.960938 290.003906 236.496094 291.058594 236.976562 C 292.113281 237.453125 293.191406 237.859375 294.277344 238.207031 C 295.363281 238.550781 296.460938 238.824219 297.558594 239.039062 C 297.835938 239.089844 298.117188 239.132812 298.390625 239.179688 C 298.671875 239.222656 298.949219 239.28125 299.226562 239.3125 C 299.78125 239.378906 300.335938 239.464844 300.890625 239.503906 C 301.167969 239.527344 301.445312 239.558594 301.71875 239.578125 L 302.546875 239.617188 L 302.960938 239.640625 L 303.375 239.644531 L 304.199219 239.652344 C 304.472656 239.652344 304.746094 239.636719 305.019531 239.632812 C 305.292969 239.621094 305.566406 239.625 305.835938 239.601562 C 306.378906 239.5625 306.921875 239.535156 307.457031 239.46875 C 307.726562 239.4375 307.996094 239.414062 308.265625 239.378906 L 309.066406 239.265625 L 309.464844 239.210938 L 309.859375 239.136719 L 310.652344 238.992188 C 310.914062 238.941406 311.175781 238.878906 311.433594 238.824219 C 311.695312 238.765625 311.957031 238.714844 312.214844 238.644531 C 312.726562 238.507812 313.246094 238.382812 313.75 238.222656 C 314.003906 238.144531 314.261719 238.074219 314.511719 237.992188 L 315.261719 237.738281 L 315.636719 237.609375 L 316.007812 237.46875 L 316.746094 237.1875 C 316.988281 237.089844 317.230469 236.984375 317.472656 236.882812 C 317.714844 236.78125 317.960938 236.6875 318.195312 236.574219 C 318.671875 236.351562 319.152344 236.140625 319.617188 235.898438 C 321.488281 234.960938 323.277344 233.878906 324.945312 232.640625 C 326.617188 231.402344 328.207031 230.058594 329.65625 228.5625 L 330.195312 228.003906 C 330.378906 227.816406 330.546875 227.621094 330.722656 227.429688 C 330.894531 227.234375 331.074219 227.046875 331.242188 226.847656 L 331.746094 226.25 C 331.914062 226.050781 332.074219 225.847656 332.234375 225.640625 L 332.71875 225.027344 L 333.183594 224.398438 C 333.332031 224.191406 333.503906 223.96875 333.617188 223.789062 C 333.871094 223.410156 334.097656 223.015625 334.273438 222.621094 C 334.453125 222.226562 334.578125 221.832031 334.640625 221.480469 C 334.703125 221.132812 334.6875 220.839844 334.640625 220.671875 C 334.617188 220.585938 334.59375 220.523438 334.5625 220.46875 C 334.550781 220.457031 334.542969 220.441406 334.535156 220.425781 C 334.523438 220.414062 334.515625 220.398438 334.503906 220.382812 C 334.488281 220.367188 334.476562 220.351562 334.464844 220.335938 C 334.449219 220.324219 334.4375 220.3125 334.425781 220.300781 C 334.375 220.25 334.316406 220.199219 334.226562 220.144531 C 334.132812 220.09375 334.011719 220.039062 333.863281 219.988281 C 333.566406 219.886719 333.167969 219.816406 332.734375 219.792969 C 332.519531 219.78125 332.296875 219.78125 332.0625 219.792969 C 331.8125 219.8125 331.5625 219.816406 331.316406 219.839844 C 331.066406 219.871094 330.820312 219.890625 330.574219 219.929688 L 330.207031 219.988281 C 330.082031 220.007812 329.960938 220.027344 329.835938 220.054688 C 327.878906 220.429688 325.996094 221.195312 324.210938 222.183594 C 323.320312 222.679688 322.449219 223.230469 321.59375 223.824219 C 320.742188 224.417969 319.914062 225.046875 319.113281 225.699219 C 317.519531 227.011719 316.050781 228.453125 314.796875 230.054688 C 313.546875 231.65625 312.5 233.414062 311.746094 235.308594 C 310.996094 237.203125 310.523438 239.25 310.421875 241.355469 C 310.375 242.410156 310.414062 243.472656 310.546875 244.535156 C 310.566406 244.667969 310.578125 244.800781 310.597656 244.933594 L 310.667969 245.328125 L 310.734375 245.726562 L 310.824219 246.121094 C 310.933594 246.652344 311.074219 247.167969 311.242188 247.652344 C 311.574219 248.625 312.011719 249.460938 312.578125 250.082031 C 313.144531 250.722656 313.945312 251.253906 314.855469 251.664062 C 315.3125 251.871094 315.792969 252.042969 316.292969 252.1875 C 316.417969 252.222656 316.542969 252.257812 316.667969 252.289062 L 317.054688 252.375 L 317.445312 252.460938 C 317.574219 252.492188 317.703125 252.507812 317.832031 252.527344 C 318.875 252.707031 319.929688 252.78125 320.988281 252.761719 C 323.101562 252.707031 325.214844 252.320312 327.296875 251.761719 C 329.378906 251.207031 331.453125 250.46875 333.53125 249.761719 C 337.664062 248.308594 341.714844 246.660156 345.644531 244.792969 L 347.113281 244.085938 L 347.847656 243.730469 L 348.570312 243.359375 L 350.023438 242.617188 C 350.5 242.363281 350.976562 242.097656 351.453125 241.839844 C 352.414062 241.332031 353.34375 240.777344 354.28125 240.234375 C 354.753906 239.972656 355.207031 239.675781 355.675781 239.398438 C 356.136719 239.117188 356.601562 238.839844 357.0625 238.550781 L 358.425781 237.671875 L 359.109375 237.230469 L 359.78125 236.773438 L 361.117188 235.851562 C 361.566406 235.542969 361.992188 235.214844 362.433594 234.898438 L 363.09375 234.421875 L 363.421875 234.183594 L 363.746094 233.9375 L 365.03125 232.945312 C 365.246094 232.78125 365.464844 232.621094 365.675781 232.445312 L 366.300781 231.929688 L 367.566406 230.90625 L 367.75 231.101562 C 364.578125 234.078125 361.183594 236.804688 357.609375 239.296875 C 354.027344 241.773438 350.265625 244.003906 346.375 246.019531 C 342.480469 248.027344 338.445312 249.792969 334.320312 251.382812 C 332.25 252.15625 330.1875 252.941406 328.039062 253.566406 C 325.898438 254.191406 323.675781 254.667969 321.359375 254.765625 C 320.203125 254.808594 319.023438 254.75 317.839844 254.570312 C 317.691406 254.546875 317.542969 254.53125 317.394531 254.5 L 316.507812 254.320312 C 316.363281 254.285156 316.214844 254.246094 316.066406 254.207031 C 315.476562 254.050781 314.890625 253.851562 314.3125 253.605469 C 313.738281 253.363281 313.171875 253.0625 312.636719 252.703125 C 312.101562 252.347656 311.59375 251.929688 311.144531 251.445312 C 310.695312 250.964844 310.3125 250.425781 309.996094 249.863281 C 309.679688 249.296875 309.421875 248.710938 309.210938 248.117188 C 308.394531 245.734375 308.082031 243.28125 308.167969 240.914062 C 308.253906 238.542969 308.757812 236.265625 309.566406 234.160156 C 310.375 232.050781 311.507812 230.121094 312.847656 228.378906 C 314.191406 226.636719 315.746094 225.089844 317.421875 223.691406 C 318.261719 222.992188 319.128906 222.332031 320.023438 221.707031 C 320.921875 221.082031 321.84375 220.492188 322.804688 219.953125 C 324.722656 218.882812 326.792969 218.023438 329.03125 217.585938 C 329.308594 217.523438 329.59375 217.492188 329.875 217.445312 C 330.160156 217.398438 330.449219 217.378906 330.734375 217.34375 C 331.023438 217.320312 331.3125 217.308594 331.601562 217.289062 C 331.894531 217.28125 332.191406 217.28125 332.488281 217.296875 C 333.085938 217.332031 333.699219 217.421875 334.304688 217.628906 C 334.605469 217.734375 334.90625 217.867188 335.195312 218.035156 C 335.480469 218.207031 335.753906 218.417969 335.996094 218.660156 C 336.484375 219.144531 336.839844 219.769531 336.996094 220.410156 C 337.15625 221.054688 337.140625 221.6875 337.035156 222.273438 C 336.933594 222.863281 336.742188 223.414062 336.507812 223.929688 C 336.273438 224.449219 335.992188 224.9375 335.679688 225.398438 C 333.132812 228.988281 330.023438 232.113281 326.472656 234.65625 C 324.703125 235.933594 322.8125 237.050781 320.832031 238.015625 C 320.339844 238.265625 319.832031 238.480469 319.328125 238.707031 C 319.078125 238.824219 318.820312 238.917969 318.5625 239.023438 C 318.304688 239.128906 318.050781 239.234375 317.792969 239.332031 L 317.011719 239.617188 L 316.617188 239.757812 L 316.222656 239.886719 L 315.425781 240.144531 C 315.160156 240.226562 314.886719 240.296875 314.621094 240.375 C 314.085938 240.535156 313.535156 240.660156 312.988281 240.796875 C 312.71875 240.867188 312.441406 240.917969 312.164062 240.972656 C 311.886719 241.03125 311.613281 241.089844 311.332031 241.140625 L 310.496094 241.28125 L 310.074219 241.347656 L 309.652344 241.402344 L 308.804688 241.511719 C 308.519531 241.542969 308.234375 241.5625 307.949219 241.589844 C 307.378906 241.648438 306.800781 241.667969 306.226562 241.699219 C 305.9375 241.71875 305.648438 241.710938 305.359375 241.71875 C 305.070312 241.71875 304.78125 241.726562 304.488281 241.722656 L 303.613281 241.699219 L 303.175781 241.683594 L 302.738281 241.65625 L 301.859375 241.597656 C 301.566406 241.570312 301.273438 241.535156 300.980469 241.503906 C 300.394531 241.453125 299.804688 241.351562 299.21875 241.269531 C 298.925781 241.230469 298.632812 241.164062 298.335938 241.113281 C 298.042969 241.054688 297.75 241.003906 297.457031 240.941406 C 296.28125 240.691406 295.109375 240.371094 293.953125 239.980469 C 292.796875 239.589844 291.648438 239.128906 290.527344 238.597656 C 289.40625 238.0625 288.304688 237.453125 287.242188 236.773438 C 286.183594 236.089844 285.160156 235.328125 284.195312 234.488281 C 283.238281 233.648438 282.339844 232.722656 281.527344 231.730469 C 280.726562 230.726562 280.007812 229.65625 279.421875 228.527344 C 279.28125 228.242188 279.132812 227.960938 279.007812 227.671875 L 278.8125 227.238281 L 278.640625 226.796875 L 278.472656 226.355469 C 278.417969 226.210938 278.371094 226.058594 278.324219 225.910156 C 278.226562 225.613281 278.125 225.320312 278.054688 225.015625 C 277.402344 222.617188 277.277344 220.175781 277.558594 217.859375 C 277.832031 215.542969 278.488281 213.339844 279.429688 211.316406 C 280.359375 209.285156 281.558594 207.421875 282.875 205.675781 C 284.191406 203.925781 285.628906 202.285156 287.09375 200.675781 L 287.285156 200.863281 " fill-opacity="1" fill-rule="nonzero"/></g></g></g><g clip-path="url(#clip-3)"><g clip-path="url(#clip-4)"><g clip-path="url(#clip-5)"><path fill="rgb(30.589294%, 62.348938%, 23.919678%)" d="M 358.804688 231.769531 C 359.582031 231.351562 360.390625 231.019531 361.199219 230.703125 C 362.011719 230.390625 362.835938 230.109375 363.667969 229.851562 C 364.5 229.597656 365.335938 229.359375 366.179688 229.152344 C 367.027344 228.9375 367.878906 228.75 368.734375 228.574219 L 370.914062 228.136719 L 370.316406 230.320312 C 369.789062 232.246094 369.125 234.113281 368.285156 235.882812 C 367.871094 236.769531 367.414062 237.632812 366.90625 238.464844 C 366.78125 238.671875 366.648438 238.875 366.519531 239.082031 C 366.382812 239.285156 366.246094 239.488281 366.105469 239.6875 C 365.824219 240.082031 365.53125 240.472656 365.207031 240.839844 C 365.230469 240.578125 365.273438 240.324219 365.308594 240.070312 C 365.351562 239.816406 365.390625 239.566406 365.4375 239.316406 C 365.527344 238.816406 365.625 238.324219 365.730469 237.835938 C 365.933594 236.855469 366.160156 235.894531 366.402344 234.941406 C 366.875 233.03125 367.40625 231.160156 367.953125 229.296875 L 369.53125 231.039062 C 368.667969 231.195312 367.800781 231.328125 366.921875 231.445312 C 366.046875 231.5625 365.160156 231.652344 364.273438 231.726562 C 363.382812 231.796875 362.480469 231.839844 361.574219 231.855469 C 360.664062 231.867188 359.746094 231.859375 358.804688 231.769531 " fill-opacity="1" fill-rule="nonzero"/></g></g></g></svg>